<svg xmlns="http://www.w3.org/2000/svg" width="20" height="20" viewBox="0 0 20 20">
<title>asset</title>
<defs><style>.a{fill:none;}.b{fill:#fff;}</style></defs><g transform="translate(0.148 0.148)"><rect class="a" width="20" height="20" transform="translate(-0.148 -0.148)"/><rect class="a" width="20" height="20" transform="translate(-0.148 -0.148)"/><g transform="translate(1.252 0.616)"><path class="b" d="M2933.15,4464.3c0,.053,0,.106,0,.159v18.711c0,.174,0,.174-.174.174q-2.476,0-4.951,0c-.119,0-.151-.026-.151-.148q0-9.448,0-18.9h.609q0,2.5,0,5c0,.107.022.139.135.139q1.892-.006,3.786,0c.113,0,.135-.031.134-.139q0-2.5,0-5Z" transform="translate(-2927.878 -4464.297)"/><path class="b" d="M3681.676,4464.3c0,.045,0,.089,0,.132q0,4.646,0,9.3a.284.284,0,0,1-.094.229,4.974,4.974,0,0,0-.455,6.792c.092.113.081.164-.016.26-.756.746-1.508,1.5-2.257,2.253a.262.262,0,0,1-.207.084c-.242,0-.486,0-.729,0-.076,0-.1-.023-.095-.1a.438.438,0,0,0,0-.08v-18.709c0-.053,0-.106,0-.159Z" transform="translate(-3671.744 -4464.297)"/><path class="b" d="M3077.323,4464.3h2.833a.167.167,0,0,1,0,.026c0,1.471,0,2.941,0,4.413,0,.115-.064.1-.134.1-.851,0-1.7,0-2.553,0-.125,0-.162-.025-.162-.156.005-1.1,0-2.2,0-3.3C3077.319,4465.02,3077.322,4464.659,3077.323,4464.3Zm1.417.811c-.3,0-.608,0-.912,0-.082,0-.115.018-.114.107q.006.879,0,1.756c0,.085.022.11.109.11q.9,0,1.8,0c.082,0,.114-.015.113-.105q-.007-.879,0-1.756c0-.1-.036-.113-.122-.112C3079.322,4465.109,3079.032,4465.107,3078.741,4465.107Zm.614,2.354a.4.4,0,0,0-.407.4.4.4,0,1,0,.806,0A.4.4,0,0,0,3079.355,4467.461Zm-.863.4a.4.4,0,0,0-.8,0,.4.4,0,1,0,.8,0Z" transform="translate(-3076.104 -4464.297)"/><path class="b" d="M4040.281,5585.343a4.239,4.239,0,1,1,4.237,4.245A4.221,4.221,0,0,1,4040.281,5585.343Zm7.693.013a3.46,3.46,0,1,0-3.485,3.448A3.46,3.46,0,0,0,4047.974,5585.355Z" transform="translate(-4031.255 -5572.053)"/><path class="b" d="M3928.953,6562.5c.041-.044.07-.076.1-.106.614-.614,1.23-1.227,1.841-1.845.083-.084.131-.1.23-.018a4.707,4.707,0,0,0,3.356,1.02,4.653,4.653,0,0,0,2.6-1.031c.086-.068.125-.062.2.013.617.622,1.24,1.241,1.859,1.862.031.029.059.062.1.105Z" transform="translate(-3920.83 -6543.467)"/><path class="b" d="M4722.709,5882.066a2.938,2.938,0,0,1-.562,1.725c-.068.1-.117.1-.2.013-.252-.264-.515-.521-.776-.778a.125.125,0,0,1-.028-.185,1.479,1.479,0,0,0-.013-1.554.1.1,0,0,1,.015-.148q.422-.41.833-.831c.063-.063.1-.049.144.015a2.877,2.877,0,0,1,.567,1.428A2.978,2.978,0,0,1,4722.709,5882.066Z" transform="translate(-4706.555 -5868.778)"/><path class="b" d="M4341.108,6263.611a3.019,3.019,0,0,1-1.795-.586c-.067-.051-.087-.085-.017-.153.277-.271.55-.546.822-.821a.111.111,0,0,1,.159-.021,1.5,1.5,0,0,0,1.578,0,.092.092,0,0,1,.134.021c.273.275.547.551.824.821.065.065.059.107-.009.157a2.856,2.856,0,0,1-1.405.558A1.747,1.747,0,0,1,4341.108,6263.611Z" transform="translate(-4327.802 -6247.418)"/><path class="b" d="M4342.706,5747.779a2.889,2.889,0,0,1,1.771.562c.09.063.089.108.013.184-.266.259-.527.521-.787.785a.13.13,0,0,1-.183.03,1.519,1.519,0,0,0-1.548,0,.128.128,0,0,1-.182-.034c-.256-.261-.513-.522-.778-.774-.1-.095-.074-.142.018-.208a3.072,3.072,0,0,1,1.1-.49A2.3,2.3,0,0,1,4342.706,5747.779Z" transform="translate(-4329.485 -5737.365)"/><path class="b" d="M4206.576,5882.426a2.845,2.845,0,0,1,.535-1.69c.1-.149.1-.149.229-.022.252.25.5.5.758.753a.142.142,0,0,1,.035.2,1.492,1.492,0,0,0,.015,1.543.108.108,0,0,1-.021.151q-.422.42-.839.839c-.045.046-.074.052-.115,0a2.957,2.957,0,0,1-.572-1.355A3.916,3.916,0,0,1,4206.576,5882.426Z" transform="translate(-4196.201 -5869.129)"/><path class="b" d="M4444.661,5984.763a.952.952,0,0,1-.961.967.967.967,0,0,1-.973-.962.979.979,0,0,1,.968-.971A.964.964,0,0,1,4444.661,5984.763Z" transform="translate(-4430.436 -5971.468)"/></g></g></svg>