<svg id="SiOUX" xmlns="http://www.w3.org/2000/svg" width="536" height="185" viewBox="0 0 536 185">
  <defs>
    <style>
      .cls-1 {
        fill: #005;
        fill-rule: evenodd;
      }
    </style>
  </defs>
  <path id="Si_UX" data-name="Si    UX" class="cls-1" d="M48.669,147.88q20.077,0,31.214-8.352,13.076-9.87,13.076-29.1a35.114,35.114,0,0,0-2.868-14.764q-3.713-8.182-14.51-13.92-3.713-1.94-18.644-8.183-12.318-5.062-15.776-7.508a9.453,9.453,0,0,1-4.556-8.268,11.7,11.7,0,0,1,4.134-9.2Q44.7,45.212,52.3,45.21a64.67,64.67,0,0,1,18.644,3.037q3.543,1.012,12.4,4.3l5.4-21.934q-20.585-6.5-38.132-6.5-24.3,0-34.926,14.932A37.285,37.285,0,0,0,8.766,61.408a29.609,29.609,0,0,0,3.206,14.173q3.8,7.087,13.414,12.4Q29.6,90.26,42.68,95.659q14.256,5.821,18.138,8.69a9.709,9.709,0,0,1,3.881,8.183,13.5,13.5,0,0,1-3.8,9.7q-4.388,4.556-13.667,4.555-14.258,0-34.758-8.605L8.6,141.131a118.226,118.226,0,0,0,40.073,6.749h0Zm89.554-2.109v-88.5H112.154v88.5h26.069ZM114.01,20.239a14.429,14.429,0,0,0-3.965,10.545,14.7,14.7,0,0,0,15.186,15.1,14.5,14.5,0,0,0,11.136-4.64,14.691,14.691,0,0,0,3.965-10.461,14.805,14.805,0,0,0-3.965-10.545A14.473,14.473,0,0,0,125.4,15.6a15.136,15.136,0,0,0-11.389,4.64h0ZM297.75,92.454q0,9.956.337,16.282,0.675,14.172,5.653,21.934,10.882,17.21,43.109,17.21,41.591,0,47.75-28.683,1.434-6.834,1.434-26.743V26.229H369.965V95.659a103.55,103.55,0,0,1-.844,14.595q-1.435,9.534-8.6,13.33a29.938,29.938,0,0,1-23.622,1.434,17.09,17.09,0,0,1-8.436-6.159q-3.8-5.483-3.8-23.2V26.229H297.75V92.454Zm144.305,53.317,28.177-39.9,28.346,39.9h32.48L487.105,85.114l43.447-58.886H499.759L471.582,65.2l-27.84-38.976h-31.3l42.013,58.211L410.25,145.771h31.805Z"/>
  <path id="SiOUX_Logo" data-name="SiOUX Logo" class="cls-1" d="M266.99,79.815c1.215-.872,2.138-4.025,2.275-5.764,6.065-1.933,11.114-3.689,13.541-4.639a67.155,67.155,0,0,1,2.113,16.3c-7.861,1.172-38.54.849-50.668-.649a16.623,16.623,0,0,1-.233,2c12.661,4.74,27.95,9.827,35.6,11.335,0.2-1.049-.839-5.022-2.632-5.895,1.064-.5,2.315-2.3,3.081-3.847,6.591,0.17,12.138.157,14.807,0a67.267,67.267,0,0,1-2.314,15.166c-7.58-.971-34.963-10.106-47.106-15.221-0.559-.286-1.083-0.563-1.578-0.833a14.4,14.4,0,0,1-.582,1.938c9.489,7.7,23.266,18.432,30.49,22.5,0.21-.943.081-4.271-1.009-5.8,1.531-.145,4.18-2.612,5.162-4.053,6.1,2.083,11.244,3.679,13.791,4.283a67.109,67.109,0,0,1-6.9,14.954c-7.2-3.229-32.105-22.653-41.812-31.21a10.131,10.131,0,0,1-1.283,2.142c7.884,11.08,17.809,25.379,23.4,31.243,0.47-.844,2-4.857,1.235-6.576,1.234,0.134,3.427-.852,4.908-1.814,5.235,4.042,9.7,7.284,11.959,8.659a67.743,67.743,0,0,1-9.908,11.489c-5.733-4.776-22.553-28.294-30.342-40.2-0.522-.924-1-1.79-1.433-2.585a6.526,6.526,0,0,1-1.442,1.28c4.2,13.173,9.934,30.154,13.758,38.576,0.682-.685,2.541-3.882,2.426-5.759,1.353,0.677,4.509-.03,6.062-0.735,3.779,5.21,7.038,9.438,8.792,11.346a67.6,67.6,0,0,1-12.968,8.666c-4.4-6.383-14.81-38.589-18.581-51.8a4.293,4.293,0,0,1-1.889.452c-0.019,0-.037,0-0.055,0,0.234,14.008,1.029,34.029,2.119,43.164,0.835-.486,4.206-2.766,4.817-4.7,1.183,1.3,4.382,1.281,5.954.933,2.082,6.081,3.928,11,5.024,13.231a66.793,66.793,0,0,1-15.3,4.885c-2.435-7.341-3.3-43.018-3.227-57.559a5.162,5.162,0,0,1-2.794-1.561c-3.281,14.061-7.528,37.523-8.71,45.908,0.938-.235,3.894-1.007,5.148-2.607,0.6,1.5,3.813,2.024,5.662,2.119,0.279,6.49.653,11.742,1.066,14.187a67.142,67.142,0,0,1-9.8.737q-2.589,0-5.131-.193c-0.506-7.989,7.833-47.913,11.234-60.743a10.727,10.727,0,0,1-1.661-3.037c-4.261,10.506-9.971,24.659-12.6,31.513h0.006l-5.865,15.483c0.014-.283.01-0.583,0-0.891-0.21.593-.408,1.158-0.581,1.669a9.9,9.9,0,0,0,5.211-1.793c0.293,1.633,2.4,3.164,3.63,3.614-1.007,5.218-1.755,9.586-2.1,12.324-0.011.112,0,.216-0.017,0.332-0.018.1-.04,0.186-0.059,0.281-0.04.355-.073,0.681-0.095,0.963L209.468,153c-1.2,4.944-3.54,6.863-3.54,11-9.454-3.045-9.38-8.3-8.328-13.526h0c0-.021.012-0.045,0.017-0.066,0.116-.571.24-1.143,0.368-1.711a3.016,3.016,0,0,1,.238-0.616c1.181-4.243,2.978-9.326,5.08-14.765-0.675-3.531-2.372-7.535-3.754-9.238-4.142,1.178-9.047,2.114-14.291.6a16.451,16.451,0,0,1-1.519-1.943l-0.322-9.119-1.1-6.759a103.511,103.511,0,0,0-10.1,4.216c0.679,0.687,3.193,3.064,4.619,3.288-0.622.9-.388,3.584,0.409,5.753a59.536,59.536,0,0,0-11.289,9.216,67.336,67.336,0,0,1-8.054-12.136,71.957,71.957,0,0,1,24.246-11.356l-1.039-6.359,1.119-4.283a90.855,90.855,0,0,0-15.189,2.387c0.463,0.848,2.359,4.041,3.608,4.764-0.949.645-1.358,3.582-1.086,5.963a71.423,71.423,0,0,0-12.981,6.218A67,67,0,0,1,151.6,99.382c7.153-2.672,15.628-5.114,30.928-5.354l0.779-2.98-1.9-4.976s-0.012-.653.027-1.751a76.655,76.655,0,0,0-15.509-1.205c0.225,0.94,1.4,4.566,2.5,5.5-0.935.416-2.234,2.594-2.795,4.736a68.948,68.948,0,0,0-14.555,3.057,67.66,67.66,0,0,1-.792-10.251c0-1.934.1-3.845,0.26-5.738,6.159-.375,20.365.566,30.988,2.112a56.633,56.633,0,0,1,1.114-7.993,1.161,1.161,0,0,0,.006-0.141c-5.62-2.569-10.482-4.213-14.15-5.49-0.061.964-.038,4.653,0.667,5.912-1.081.066-2.949,1.843-4.049,3.834-6.048-.718-11.449-1.127-14.261-1.177a67,67,0,0,1,3.876-15.367c6.017,1.348,18.625,6.373,27.914,10.9a28.63,28.63,0,0,1,3.1-8.126c-3.782-3.262-7.339-5.84-10.989-8.476a12.38,12.38,0,0,0-.146,5.306c-1.088-.163-3.888,1.347-5.563,3.05a141.077,141.077,0,0,0-13.2-5.391,67.312,67.312,0,0,1,7.636-13.221c5.376,2.9,15.461,10.974,22.852,17.776,0.05-.071.087-0.153,0.137-0.223a16.135,16.135,0,0,1,7.277-2.986c-2.944-4.87-6.043-9.339-9.609-14.253-0.548.8-1.868,2.678-1.953,4.119-0.976-.543-3.786.854-5.8,2.173A128.594,128.594,0,0,0,165.3,43.817,67.745,67.745,0,0,1,176.6,32.8c4.5,4.447,12.637,17.821,18.089,27.789a24.692,24.692,0,0,1,8.028.575,166.985,166.985,0,0,0-6.659-22.277c-0.738.624-3.219,3.266-3.557,4.67-0.852-.7-3.575-0.987-5.81-0.406a122.961,122.961,0,0,0-7.747-12.094,67.183,67.183,0,0,1,13.7-7.437c3.387,5.969,8.628,25.618,11.315,37.849a39.62,39.62,0,0,1,7.2,2.761c0.321-10.275.115-21.649-.5-29.8-0.884.391-4.587,2.248-5.405,3.437-0.541-.946-3.369-1.556-5.721-1.547A132.791,132.791,0,0,0,195.379,22.6a66.916,66.916,0,0,1,15.882-3.473c1.595,6.879,1.357,31.5.591,45.457a50.991,50.991,0,0,1,5.647,3.394c3.2-10.912,5.886-24.815,7.654-33.391-0.958.132-4.944,0.718-5.969,1.734-0.328-.953-2.583-2.184-4.717-2.87,0.079-6.473-.023-11.9-0.3-14.535,1.14-.058,2.285-0.1,3.439-0.1a67.642,67.642,0,0,1,11.786,1.05c-0.287,7.4-6.982,35.209-11.159,48.632,1.466,1.05,2.892,2.179,4.26,3.378,6.64-11.135,12.253-23.779,16.435-33.249a16.992,16.992,0,0,0-5.714.684c0.053-1.065-2.035-3.486-4.01-4.845,1.547-6.253,2.69-11.48,3.065-14.029A66.839,66.839,0,0,1,246.9,25.543c-2.333,7.311-16.532,35.406-23.752,46.917,0.659,0.6,1.279,1.23,1.908,1.855a4.525,4.525,0,0,1,2.648-.908c0.1,0,.189.017,0.284,0.023,8.594-8.5,18.712-20.763,23.954-27.1-0.879-.4-5.014-1.394-6.426-1.1,0.258-1.05-.846-3.662-2.332-5.445,2.99-5.739,5.344-10.549,6.342-12.906a67.562,67.562,0,0,1,13.449,9.56c-4.3,6.179-24.019,27.742-33.953,37.176a6.882,6.882,0,0,1,3.67,3.517c9.649-5.081,24.147-15.921,29.731-20.029-0.73-.633-3.724-1.276-5.593-1.071,0.589-1.336-.291-4.893-1.083-6.644,4.372-4.79,7.782-8.827,9.385-10.9a67.707,67.707,0,0,1,9.613,12.082c-6.015,5.091-30.61,21.8-41.684,27.325a14.386,14.386,0,0,1,1,3.46c11.73-2.692,27.747-9.14,34.1-11.587-0.536-.8-2.823-3.226-4.7-3.359,0.687-1.014.765-3.343,0.571-5.084,5.507-3.524,10.072-6.617,12.23-8.2a67.048,67.048,0,0,1,5.728,13.427c-7.241,3.42-36.137,13.486-47.809,15.69,0.059,0.553.095,1.119,0.1,1.7,13.1,1.488,28.679.81,36.364,0.449C270.359,83.473,268.7,80.587,266.99,79.815ZM182.2,85.125l1.48,0.012,2.57-.758,4.807,2.072-4.8,7.043,0.729,11.682,2.1,1.145-3-1.058,0.007-.532L185.845,93.7l3.075-4.841-1.468.07-1.576-1.46,0.531,1.509-1.749.083-2.6,9.681,2.176,14.334,0.347,8.756a4.582,4.582,0,0,0,1.169,1.789c10.19,2.937,15.961-4.189,22.827-3.326,6.066-14.249,10.855-26.588,13.047-32.136a16.582,16.582,0,0,1-.5-4.072c0-.1.008-0.2,0.01-0.3C207.6,72.4,194.73,67.744,183.8,73.895A49.272,49.272,0,0,0,182.2,85.125Zm4.813-20.535c-1.591,1.306-2.834,5.421-3.4,8.4,11.634-7.158,26.506.416,37.61,9.321a11.993,11.993,0,0,1,3.223-7.493C211.289,62.745,196.133,58.089,187.012,64.59Zm40.935,9.8c-3.238,0-5.863,4.262-5.863,9.52s2.625,9.52,5.863,9.52,5.863-4.262,5.863-9.52S231.185,74.393,227.947,74.393Zm-35.168,30.562-3.812-.516,3.418-1.7Zm3.524,7.256-0.047.529,0.762,2.1-1.743-2.273-7.027-1.046-3.116.95L187.8,110.2l0.437,0.687,0.779-.819,6.42,2.374Zm-6.193,3.511-1.928-1.3,6.027-.5Zm7.547-29.253,0.567,1.609,0.2-.013-4.694.435-0.658-2.107,4.047-1.921,10.449,2.747-8.277.766Z"/>
</svg>
