<svg xmlns="http://www.w3.org/2000/svg" width="100" height="28" viewBox="0 0 100 28"><defs><style>.a{fill:#fff;fill-rule:evenodd;}</style></defs><g transform="translate(-8.6 -15.592)"><path class="a" d="M16.269,40.181a10,10,0,0,0,5.974-1.552,6.281,6.281,0,0,0,2.5-5.409,6.363,6.363,0,0,0-.549-2.744,5.846,5.846,0,0,0-2.777-2.587q-.711-.361-3.569-1.521a19.118,19.118,0,0,1-3.02-1.4,1.746,1.746,0,0,1-.872-1.537,2.148,2.148,0,0,1,.791-1.71,3.4,3.4,0,0,1,2.213-.627,12.715,12.715,0,0,1,3.569.564q.678.188,2.373.8l1.034-4.077a25.015,25.015,0,0,0-7.3-1.208q-4.651,0-6.685,2.775a6.792,6.792,0,0,0-1.325,4.157,5.372,5.372,0,0,0,.614,2.634,6.1,6.1,0,0,0,2.567,2.3q.807.424,3.31,1.427a20.085,20.085,0,0,1,3.472,1.615,1.785,1.785,0,0,1,.743,1.521,2.47,2.47,0,0,1-.727,1.8,3.55,3.55,0,0,1-2.616.847,18.28,18.28,0,0,1-6.653-1.6L8.6,38.927a23.238,23.238,0,0,0,7.67,1.254h0Zm17.141-.392V23.339h-4.99v16.45ZM28.776,16.456a2.638,2.638,0,0,0-.759,1.96,2.691,2.691,0,0,0,.829,2.013,2.859,2.859,0,0,0,2.078.793,2.817,2.817,0,0,0,2.131-.862,2.89,2.89,0,0,0,0-3.9,2.811,2.811,0,0,0-2.1-.862,2.942,2.942,0,0,0-2.18.862h0ZM63.944,29.879q0,1.851.064,3.026a8.116,8.116,0,0,0,1.082,4.077q2.083,3.2,8.251,3.2,7.961,0,9.139-5.331a28.646,28.646,0,0,0,.274-4.971V17.57H77.766V30.475a18.7,18.7,0,0,1-.162,2.713,3.124,3.124,0,0,1-1.646,2.478,5.885,5.885,0,0,1-4.521.267,3.267,3.267,0,0,1-1.615-1.145q-.727-1.019-.727-4.312V17.57H63.944Zm27.62,9.91,5.393-7.416,5.426,7.416H108.6l-8.413-11.274L108.5,17.569h-5.894l-5.393,7.244-5.329-7.245H85.9l8.041,10.82-8.461,11.4Z" transform="translate(0)"/><path class="a" d="M174.982,30.294a1.758,1.758,0,0,0,.481-1.085c1.284-.364,2.352-.694,2.866-.873a11.319,11.319,0,0,1,.447,3.067,77.677,77.677,0,0,1-10.723-.122,2.8,2.8,0,0,1-.049.376,68.144,68.144,0,0,0,7.534,2.133,1.373,1.373,0,0,0-.557-1.109,1.793,1.793,0,0,0,.652-.724c1.395.032,2.569.03,3.134,0a11.365,11.365,0,0,1-.49,2.854,73.864,73.864,0,0,1-9.969-2.864c-.118-.054-.229-.106-.334-.157a2.489,2.489,0,0,1-.123.365,64.062,64.062,0,0,0,6.453,4.234,1.685,1.685,0,0,0-.214-1.091,2.269,2.269,0,0,0,1.092-.763c1.291.392,2.38.692,2.919.806a12.026,12.026,0,0,1-1.46,2.814c-1.524-.608-6.794-4.262-8.849-5.872a1.877,1.877,0,0,1-.272.4,74.644,74.644,0,0,0,4.952,5.879c.1-.159.423-.914.261-1.237a2.239,2.239,0,0,0,1.039-.341c1.108.761,2.053,1.371,2.531,1.629a13.308,13.308,0,0,1-2.1,2.162c-1.213-.9-4.773-5.324-6.421-7.564-.11-.174-.212-.337-.3-.486a1.343,1.343,0,0,1-.305.241c.889,2.479,2.1,5.674,2.912,7.258a1.963,1.963,0,0,0,.513-1.084A2.229,2.229,0,0,0,171.885,39c.8.98,1.489,1.776,1.861,2.135A14.55,14.55,0,0,1,171,42.768c-.931-1.2-3.134-7.261-3.932-9.747a1,1,0,0,1-.4.085h-.012c.05,2.636.218,6.4.448,8.122.177-.091.89-.52,1.019-.884a1.753,1.753,0,0,0,1.26.176,25.258,25.258,0,0,0,1.063,2.49,15.428,15.428,0,0,1-3.238.919c-.515-1.381-.7-8.094-.683-10.83a1.134,1.134,0,0,1-.591-.294c-.694,2.646-1.593,7.06-1.843,8.638a2.316,2.316,0,0,0,1.089-.491c.127.282.807.381,1.2.4a24.764,24.764,0,0,0,.226,2.669,15.949,15.949,0,0,1-2.074.139q-.548,0-1.086-.036c-.107-1.5,1.658-9.015,2.377-11.429a1.963,1.963,0,0,1-.352-.571c-.9,1.977-2.11,4.64-2.667,5.929h0l-1.241,2.913c0-.053,0-.11,0-.168-.044.112-.086.218-.123.314a2.27,2.27,0,0,0,1.1-.337c.062.307.508.6.768.68-.213.982-.371,1.8-.444,2.319,0,.021,0,.041,0,.062s-.008.035-.012.053c-.008.067-.015.128-.02.181l-.025,0c-.254.93-.749,1.291-.749,2.07-2-.573-1.985-1.562-1.762-2.545h0a.055.055,0,0,1,0-.012c.025-.107.051-.215.078-.322a.531.531,0,0,1,.05-.116A29.287,29.287,0,0,1,161.5,40.36a4.374,4.374,0,0,0-.794-1.738,6.011,6.011,0,0,1-3.024.113,3.177,3.177,0,0,1-.321-.366l-.068-1.716-.233-1.272q-1.092.346-2.137.793a2.841,2.841,0,0,0,.978.619,1.412,1.412,0,0,0,.087,1.082A12.425,12.425,0,0,0,153.6,39.61a12.664,12.664,0,0,1-1.7-2.284,16.147,16.147,0,0,1,5.131-2.137l-.22-1.2.237-.806a21.456,21.456,0,0,0-3.214.449,3.274,3.274,0,0,0,.764.9c-.2.121-.287.674-.23,1.122a16.008,16.008,0,0,0-2.747,1.17,11.654,11.654,0,0,1-1.054-2.85,19.9,19.9,0,0,1,6.545-1.007l.165-.561-.4-.936s0-.123.006-.329a18.2,18.2,0,0,0-3.282-.227,2.746,2.746,0,0,0,.529,1.035,1.562,1.562,0,0,0-.592.891,16.185,16.185,0,0,0-3.08.575,11.348,11.348,0,0,1-.168-1.929c0-.364.021-.723.055-1.08a46.869,46.869,0,0,1,6.558.4,9.548,9.548,0,0,1,.236-1.5.2.2,0,0,0,0-.027c-1.189-.483-2.218-.793-2.995-1.033a2.747,2.747,0,0,0,.141,1.112,1.539,1.539,0,0,0-.857.721c-1.28-.135-2.423-.212-3.018-.221a11.485,11.485,0,0,1,.82-2.891,38.232,38.232,0,0,1,5.907,2.051,5.039,5.039,0,0,1,.656-1.529c-.8-.614-1.553-1.1-2.326-1.595a2.078,2.078,0,0,0-.031,1,2.19,2.19,0,0,0-1.177.574q-1.367-.57-2.794-1.014a12.4,12.4,0,0,1,1.616-2.488,31.664,31.664,0,0,1,4.836,3.345c.011-.013.018-.029.029-.042a3.659,3.659,0,0,1,1.54-.562c-.623-.916-1.279-1.757-2.034-2.682a1.818,1.818,0,0,0-.413.775c-.207-.1-.8.161-1.227.409a26.9,26.9,0,0,0-2.347-1.682,13.719,13.719,0,0,1,2.391-2.073,30.737,30.737,0,0,1,3.828,5.229,5.86,5.86,0,0,1,1.7.108,28.858,28.858,0,0,0-1.409-4.192,2.819,2.819,0,0,0-.753.879,1.951,1.951,0,0,0-1.23-.076,23,23,0,0,0-1.639-2.276,14.854,14.854,0,0,1,2.9-1.4,36.156,36.156,0,0,1,2.395,7.122,9.05,9.05,0,0,1,1.524.52,50.889,50.889,0,0,0-.106-5.607,4.2,4.2,0,0,0-1.144.647c-.115-.178-.713-.293-1.211-.291a22.962,22.962,0,0,0-.879-2.582,15.689,15.689,0,0,1,3.361-.653c.338,1.294.287,5.927.125,8.553a11.14,11.14,0,0,1,1.2.639c.677-2.053,1.246-4.669,1.62-6.283a3.628,3.628,0,0,0-1.263.326c-.069-.179-.547-.411-1-.54a26.056,26.056,0,0,0-.063-2.735c.241-.011.484-.019.728-.019a16.055,16.055,0,0,1,2.494.2,57.406,57.406,0,0,1-2.362,9.151c.31.2.612.41.9.636a56.357,56.357,0,0,0,3.478-6.256,4.021,4.021,0,0,0-1.209.129c.011-.2-.431-.656-.849-.912.327-1.177.569-2.16.649-2.64a15.361,15.361,0,0,1,3.1.961A67.319,67.319,0,0,1,165.7,28.91c.139.113.271.231.4.349a1.037,1.037,0,0,1,.56-.171c.021,0,.04,0,.06,0,1.819-1.6,3.96-3.907,5.069-5.1a4.335,4.335,0,0,0-1.36-.207,1.58,1.58,0,0,0-.494-1.025c.633-1.08,1.131-1.985,1.342-2.428a14.411,14.411,0,0,1,2.846,1.8,84.62,84.62,0,0,1-7.185,7,1.4,1.4,0,0,1,.777.662,62.521,62.521,0,0,0,6.292-3.769,2.448,2.448,0,0,0-1.184-.2,2.01,2.01,0,0,0-.229-1.25c.925-.9,1.647-1.661,1.986-2.051a13.118,13.118,0,0,1,2.034,2.273,73.883,73.883,0,0,1-8.822,5.141,2.482,2.482,0,0,1,.212.651,65.733,65.733,0,0,0,7.217-2.18,1.821,1.821,0,0,0-.995-.632,1.56,1.56,0,0,0,.121-.957c1.165-.663,2.132-1.245,2.588-1.543a11.915,11.915,0,0,1,1.212,2.526,76.594,76.594,0,0,1-10.118,2.952,2.921,2.921,0,0,1,.021.32,58.208,58.208,0,0,0,7.7.084A1.862,1.862,0,0,0,174.982,30.294Zm-17.944,1,.313,0,.544-.143,1.017.39L157.9,32.867l.154,2.2.444.215-.635-.2v-.1l-.052-2.076L158.46,32l-.311.013-.334-.275.112.284-.37.016-.55,1.822.461,2.7.073,1.648a.86.86,0,0,0,.247.337c2.157.553,3.378-.788,4.831-.626,1.284-2.681,2.3-5,2.761-6.047a2.793,2.793,0,0,1-.106-.766c0-.019,0-.038,0-.056-2.864-2.143-5.588-3.019-7.9-1.861a8.315,8.315,0,0,0-.339,2.113Zm1.019-3.864a3.107,3.107,0,0,0-.72,1.581c2.462-1.347,5.609.078,7.959,1.754a2.142,2.142,0,0,1,.682-1.41c-2.784-2.272-5.992-3.148-7.922-1.924Zm8.663,1.844c-.685,0-1.241.8-1.241,1.791s.556,1.791,1.241,1.791,1.241-.8,1.241-1.791-.556-1.791-1.241-1.791Zm-7.443,5.751-.807-.1.723-.32Zm.746,1.365-.01.1.161.4-.369-.428-1.487-.2-.659.179.564-.427.092.129.165-.154,1.359.447Zm-1.311.661L158.3,36.8l1.275-.094Zm1.6-5.5.12.3.042,0-.993.082-.139-.4.856-.361,2.211.517-1.752.144Z" transform="translate(-115.559 -2.541)"/></g></svg>